<?xml version="1.0" ?><svg viewBox="0 0 512 512" xmlns="http://www.w3.org/2000/svg" style="fill: black;"><g id="Elder_couple"><path d="M336.3249,131.5835a21.9134,21.9134,0,0,0,12.124,3.7476,21.4434,21.4434,0,0,0,11.6641-3.5547,5,5,0,1,0-5.3691-8.4366,11.2813,11.2813,0,0,1-12.5274.1636,5,5,0,0,0-5.8916,8.08Z"/><path d="M168.5417,155.5737a11.2809,11.2809,0,0,1-12.5273.1636,5,5,0,0,0-5.8916,8.08,21.9137,21.9137,0,0,0,12.124,3.7475,21.4434,21.4434,0,0,0,11.6641-3.5546,5,5,0,1,0-5.3692-8.4366Z"/><path d="M483.528,303.248a15.3767,15.3767,0,0,0-.3457-11.767c-13.16-29.39-26.9013-73.0782-38.6084-111.9385-11.6616-38.7089-37.1518-47.08-50.3559-50.9163a49.548,49.548,0,0,0,3.43-26.3249h13.5724a6.1668,6.1668,0,0,0,6.249-5.815,6,6,0,0,0-5.9972-6.185H398.1442V62.1987A36.7646,36.7646,0,0,0,361.38,25.4341H335.34a36.7647,36.7647,0,0,0-36.7647,36.7646V90.3013H285.4986a6.1667,6.1667,0,0,0-6.249,5.8149,6,6,0,0,0,5.9972,6.1851h13.0371a49.387,49.387,0,0,0,2.9517,25.1129c-11.9888,2.9541-33.4722,11.5323-44.5269,35.9569a67.1831,67.1831,0,0,0-5.4609,20.6929l-1.9185,18.2505a82.9832,82.9832,0,0,0-42.7847-38.2,49.8135,49.8135,0,0,0,5.7373-21.2462A31.79,31.79,0,0,0,201.2751,82.39h-.001a32.0109,32.0109,0,0,0-9.46.6734,5.9652,5.9652,0,0,1-5.76-1.97,31.7914,31.7914,0,0,0-47.793-.0005,5.967,5.967,0,0,1-5.7607,1.9707,32.3263,32.3263,0,0,0-14.8818.2046,31.7894,31.7894,0,0,0-5.586,59.6,49.8243,49.8243,0,0,0,4.9024,19.6174c-13.8,4.3753-41.6631,16.8041-50.12,47.3388-8.5937,31.0264-18.4609,53.8316-35.1943,81.3369a14.5892,14.5892,0,0,0-1.2095,12.7483,25.5171,25.5171,0,0,0-15.5571,23.4119v8.993a6.1668,6.1668,0,0,0,5.8148,6.2488,6,6,0,0,0,6.1852-5.9972l0-9.6385A12.9336,12.9336,0,0,1,37.9907,314.13l.1373-.0193A13.7381,13.7381,0,0,1,49.279,317.37a13.3359,13.3359,0,0,1,4.417,9.9517V465.3282a6.1668,6.1668,0,0,0,5.8149,6.2491A6,6,0,0,0,65.696,465.58V327.3213a25.5341,25.5341,0,0,0-.9722-6.9807,14.5213,14.5213,0,0,0,10.1043-2.4119c26.976-41.8326,28.2881-71.09,28.298-71.3891a5.25,5.25,0,0,1,10.4942.3593c-.04,1.1726-1.1167,25.1453-20.4594,60.7171l-5.3145,68.5979a6.0189,6.0189,0,0,0,3.533,5.948,6.1643,6.1643,0,0,0,2.57.5153h18.8668l3.0235,77.2344A12.1081,12.1081,0,0,0,127.9734,471.58h64.3681a12.1081,12.1081,0,0,0,12.1338-11.668l3.0234-77.2349h19.3492a6.1755,6.1755,0,0,0,2.6244-.5377,6.016,6.016,0,0,0,3.4688-6.1053l-3.6637-33.9907c-11.557-3.4385-19.406-7.662-24.4574-11.1456a16.7331,16.7331,0,0,1-5.6695-21.0834c15.8243-33.05,9.8863-61.6988,9.8247-61.9839a5.25,5.25,0,0,1,10.2618-2.2227c.2837,1.31,6.7446,32.4829-10.6158,68.7407a6.2818,6.2818,0,0,0,2.16,7.9058c5.2142,3.5953,13.9492,8.0981,27.6891,11.3784h44.5673L274.695,457.2812a13.4037,13.4037,0,0,0,13.3731,14.3052h36.3525A13.4215,13.4215,0,0,0,337.8,458.9927l2.9417-111.1084a6.6586,6.6586,0,0,1,6.6558-6.4824h0a6.6586,6.6586,0,0,1,6.6568,6.4817l2.9527,111.11a13.4214,13.4214,0,0,0,13.3789,12.5932h36.3056a13.4055,13.4055,0,0,0,13.3682-14.3847L405.5642,259.7944c4.2607,11.929,7.4218,20.2873,7.4736,20.4244,5.8339,16.0373,11.5941,28.9952,15.4624,37.1594a15.9781,15.9781,0,0,0,9.286,8.4319,15.3273,15.3273,0,0,0,12.3263-1.157l.0108.0071a25.8344,25.8344,0,0,0-.1392,2.6611V465.3282a6.1668,6.1668,0,0,0,5.8149,6.2491,6,6,0,0,0,6.1851-5.9972V327.7262a13.9493,13.9493,0,0,1,3.7248-9.6837,13.3131,13.3131,0,0,1,9.8318-4.1411,13.4643,13.4643,0,0,1,13.2842,13.42v8.993a6.1668,6.1668,0,0,0,5.8148,6.2488,6,6,0,0,0,6.1852-5.9972v-9.2446A25.5239,25.5239,0,0,0,483.528,303.248ZM111.0661,127.6172A19.8033,19.8033,0,0,1,123.96,94.3545a19.953,19.953,0,0,1,5.915.4175,17.9623,17.9623,0,0,0,17.4033-5.7613,19.7914,19.7914,0,0,1,29.76.0005,17.9635,17.9635,0,0,0,17.4033,5.7608,19.9544,19.9544,0,0,1,5.9131-.4175h-.001a19.8031,19.8031,0,0,1,12.8955,33.2627,19.7917,19.7917,0,0,1-27.9858.9419c11.7739-6.3662,12.8545-16.6864,12.9038-17.2505a6,6,0,0,0-11.9551-1.042c-.0068.0844-1.1591,8.4206-16.18,10.6741a18.3453,18.3453,0,0,0-3.479.4426,19.991,19.991,0,0,1-8.7911,0,17.229,17.229,0,0,0-17.0986,5.4858,19.798,19.798,0,0,1-29.5967.7481ZM154.1579,459.58H127.9734a.143.143,0,0,1-.1436-.1377l-3.0049-76.7652h29.333ZM142.8128,188.2318a59.6969,59.6969,0,0,0,38.6893,0,19.7432,19.7432,0,0,1-38.6893,0Zm49.6723,271.2111a.1429.1429,0,0,1-.1436.1372H166.1579V382.6772H195.49ZM162.1579,178.9282a38.2287,38.2287,0,0,1-37.8257-33.0607c.4.0153.8008.0314,1.2027.0314a31.7511,31.7511,0,0,0,24.2939-11.2842,5.2787,5.2787,0,0,1,5.2715-1.53,32.076,32.076,0,0,0,14.1133,0,5.2809,5.2809,0,0,1,5.2724,1.5307,31.7511,31.7511,0,0,0,24.294,11.2837c.4018,0,.8022-.0161,1.2026-.0314A38.2275,38.2275,0,0,1,162.1579,178.9282Zm152.46-76.6269h66.6965a4.77,4.77,0,0,1,4.7477,4.4676q.0808,1.1908.0822,2.4025a38.1782,38.1782,0,1,1-76.3564,0q0-1.2116.0823-2.4025A4.77,4.77,0,0,1,314.6178,102.3013Zm50.2677,56.2446a16.5259,16.5259,0,1,1-33.0518,0,16.7729,16.7729,0,0,1,.1074-1.8356,50.0212,50.0212,0,0,0,32.812-.2586A16.795,16.795,0,0,1,364.8855,158.5459Zm105.76,142.3047c-7.5713,3.8257-18.7939,9.4951-26.4658,13.3682a3.43,3.43,0,0,1-4.6484-1.586c-3.7559-7.9023-9.4453-20.6523-15.2442-36.5918-.1347-.3569-13.6308-36.0381-22.4736-65.3735a5.9953,5.9953,0,0,0-11.2012-.7509c-.0161.036-.0351.0708-.0508.1072-.0507.1168-.0932.2366-.1362.3565-.0229.0629-.0483.1244-.0688.1882-.0347.1083-.0625.2189-.0909.3293-.02.0763-.0424.1515-.06.2288-.024.1113-.0406.2242-.0586.3371-.0122.0777-.0274.1543-.0366.2328-.0147.1222-.021.2456-.0279.3692-.0039.0706-.0107.14-.0122.2115-.0029.1291.0034.259.0093.3891.0024.0578,0,.1145.0039.1726l.0068.0925.001.01,3.29,44.81H300.1838l3.0327-44.9483a6,6,0,1,0-11.9726-.8076l-7.397,109.6372H251.4235c11.1758-40.062,12.0293-70.3125,7.2193-93.1356l4.5386-43.1764a55.2463,55.2463,0,0,1,4.46-17.0024c10.021-22.14,30.84-28.2935,39.5689-29.9295a50.57,50.57,0,0,0,13.5532,12.914,28.5257,28.5257,0,1,0,55.1865-.0241c-.0356-.1357-.0815-.2657-.1255-.3967a50.5924,50.5924,0,0,0,12.1782-11.5036c.0884.0262.1739.0572.2647.0795l1.4023.3447.0752.0215c11.6084,3.3467,33.2159,9.5767,43.3389,43.18C444.9,222.23,458.7927,266.375,472.2312,296.3853A3.4275,3.4275,0,0,1,470.6452,300.8506Z"/></g></svg>